<svg width="128" height="128" viewBox="0 0 128 128" fill="none" xmlns="http://www.w3.org/2000/svg">
<rect width="128" height="128" fill="#F57335"/>
<g clip-path="url(#clip0_10_6)">
<g filter="url(#filter0_d_10_6)">
<path d="M80.4467 55.9917V35.1792C80.4467 30.5794 78.6194 26.1679 75.3669 22.9153C72.1143 19.6627 67.7028 17.8354 63.103 17.8354C58.5031 17.8354 54.0917 19.6627 50.8391 22.9153C47.5865 26.1679 45.7592 30.5794 45.7592 35.1792V55.9917M98.2807 46.7741L104.122 102.274C104.446 105.35 102.041 108.023 98.9467 108.023H27.2592C26.5294 108.024 25.8077 107.871 25.1407 107.575C24.4738 107.278 23.8767 106.845 23.3882 106.303C22.8997 105.761 22.5307 105.122 22.3052 104.428C22.0797 103.734 22.0027 103 22.0792 102.274L27.9252 46.7741C28.0601 45.4955 28.6635 44.3122 29.6191 43.4522C30.5748 42.5922 31.815 42.1165 33.1006 42.1167H93.1054C95.7694 42.1167 98.0032 44.1286 98.2807 46.7741ZM47.4936 55.9917C47.4936 56.4517 47.3109 56.8928 46.9856 57.2181C46.6604 57.5433 46.2192 57.7261 45.7592 57.7261C45.2993 57.7261 44.8581 57.5433 44.5328 57.2181C44.2076 56.8928 44.0249 56.4517 44.0249 55.9917C44.0249 55.5317 44.2076 55.0906 44.5328 54.7653C44.8581 54.44 45.2993 54.2573 45.7592 54.2573C46.2192 54.2573 46.6604 54.44 46.9856 54.7653C47.3109 55.0906 47.4936 55.5317 47.4936 55.9917ZM82.1811 55.9917C82.1811 56.4517 81.9984 56.8928 81.6731 57.2181C81.3479 57.5433 80.9067 57.7261 80.4467 57.7261C79.9867 57.7261 79.5456 57.5433 79.2203 57.2181C78.8951 56.8928 78.7124 56.4517 78.7124 55.9917C78.7124 55.5317 78.8951 55.0906 79.2203 54.7653C79.5456 54.44 79.9867 54.2573 80.4467 54.2573C80.9067 54.2573 81.3479 54.44 81.6731 54.7653C81.9984 55.0906 82.1811 55.5317 82.1811 55.9917Z" stroke="white" stroke-width="6" stroke-linecap="round" stroke-linejoin="round" shape-rendering="crispEdges"/>
</g>
</g>
<defs>
<filter id="filter0_d_10_6" x="19.0505" y="14.8354" width="96.1011" height="104.188" filterUnits="userSpaceOnUse" color-interpolation-filters="sRGB">
<feFlood flood-opacity="0" result="BackgroundImageFix"/>
<feColorMatrix in="SourceAlpha" type="matrix" values="0 0 0 0 0 0 0 0 0 0 0 0 0 0 0 0 0 0 127 0" result="hardAlpha"/>
<feOffset dx="4" dy="4"/>
<feGaussianBlur stdDeviation="2"/>
<feComposite in2="hardAlpha" operator="out"/>
<feColorMatrix type="matrix" values="0 0 0 0 0 0 0 0 0 0 0 0 0 0 0 0 0 0 0.25 0"/>
<feBlend mode="normal" in2="BackgroundImageFix" result="effect1_dropShadow_10_6"/>
<feBlend mode="normal" in="SourceGraphic" in2="effect1_dropShadow_10_6" result="shape"/>
</filter>
<clipPath id="clip0_10_6">
<rect width="111" height="111" fill="white" transform="translate(8 8)"/>
</clipPath>
</defs>
</svg>
